{
  "accessors": [
    {
      "bufferView": 2,
      "componentType": 5126,
      "count": 11095,
      "max": [
        0.6614481210708618,
        0.3930151164531708,
        1.1749439239501953
      ],
      "min": [
        -0.6112091541290283,
        -0.42003244161605835,
        -0.022725999355316162
      ],
      "type": "VEC3"
    },
    {
      "bufferView": 2,
      "byteOffset": 133140,
      "componentType": 5126,
      "count": 11095,
      "max": [
        0.9999205470085144,
        0.9998645186424255,
        0.9996861815452576
      ],
      "min": [
        -0.9996691942214966,
        -0.999914824962616,
        -0.9999611377716064
      ],
      "type": "VEC3"
    },
    {
      "bufferView": 1,
      "componentType": 5126,
      "count": 11095,
      "max": [
        0.996999979019165,
        0.996999979019165
      ],
      "min": [
        0.003000000026077032,
        0.0009999870089814067
      ],
      "type": "VEC2"
    },
    {
      "bufferView": 0,
      "componentType": 5125,
      "count": 55968,
      "type": "SCALAR"
    }
  ],
  "asset": {
    "extras": {
      "author": "Guilherme Navarro (https://sketchfab.com/guinavarro.al)",
      "license": "CC-BY-4.0 (http://creativecommons.org/licenses/by/4.0/)",
      "source": "https://sketchfab.com/3d-models/bubbles-the-powerpuff-girls-534acb9b029346bf8bb84bd4c9d31761",
      "title": "Bubbles (The Powerpuff Girls)"
    },
    "generator": "Sketchfab-16.56.0",
    "version": "2.0"
  },
  "bufferViews": [
    {
      "buffer": 0,
      "byteLength": 223872,
      "name": "floatBufferViews",
      "target": 34963
    },
    {
      "buffer": 0,
      "byteLength": 88760,
      "byteOffset": 223872,
      "byteStride": 8,
      "name": "floatBufferViews",
      "target": 34962
    },
    {
      "buffer": 0,
      "byteLength": 266280,
      "byteOffset": 312632,
      "byteStride": 12,
      "name": "floatBufferViews",
      "target": 34962
    }
  ],
  "buffers": [
    {
      "byteLength": 578912,
      "uri": "scene.bin"
    }
  ],
  "images": [
    {
      "uri": "textures/Bubbles_baseColor.png"
    }
  ],
  "materials": [
    {
      "doubleSided": true,
      "name": "Bubbles",
      "pbrMetallicRoughness": {
        "baseColorTexture": {
          "index": 0
        },
        "metallicFactor": 0.0
      }
    }
  ],
  "meshes": [
    {
      "name": "Object_0",
      "primitives": [
        {
          "attributes": {
            "NORMAL": 1,
            "POSITION": 0,
            "TEXCOORD_0": 2
          },
          "indices": 3,
          "material": 0,
          "mode": 4
        }
      ]
    }
  ],
  "nodes": [
    {
      "children": [
        1
      ],
      "matrix": [
        1.0,
        0.0,
        0.0,
        0.0,
        0.0,
        2.220446049250313e-16,
        -1.0,
        0.0,
        0.0,
        1.0,
        2.220446049250313e-16,
        0.0,
        0.0,
        0.0,
        0.0,
        1.0
      ],
      "name": "Sketchfab_model"
    },
    {
      "children": [
        2
      ],
      "name": "Bubbles.obj.cleaner.materialmerger.gles"
    },
    {
      "mesh": 0,
      "name": "Object_2"
    }
  ],
  "samplers": [
    {
      "magFilter": 9729,
      "minFilter": 9987,
      "wrapS": 10497,
      "wrapT": 10497
    }
  ],
  "scene": 0,
  "scenes": [
    {
      "name": "Sketchfab_Scene",
      "nodes": [
        0
      ]
    }
  ],
  "textures": [
    {
      "sampler": 0,
      "source": 0
    }
  ]
}
